<svg xmlns="http://www.w3.org/2000/svg" width="1200" height="560" viewBox="0 0 1200 560">
  <defs>
    <linearGradient id="bg" x1="0" y1="0" x2="0" y2="1"><stop stop-color="#151a21"/><stop offset="1" stop-color="#080a0d"/></linearGradient>
    <linearGradient id="case" x1="0" y1="0" x2="0" y2="1"><stop stop-color="#333"/><stop offset=".32" stop-color="#171717"/><stop offset=".7" stop-color="#090909"/><stop offset="1" stop-color="#262626"/></linearGradient>
    <linearGradient id="drum" x1="0" y1="0" x2="0" y2="1"><stop stop-color="#050505"/><stop offset=".5" stop-color="#202020"/><stop offset="1" stop-color="#020202"/></linearGradient>
    <filter id="shadow"><feDropShadow dx="0" dy="8" stdDeviation="9" flood-opacity=".65"/></filter>
  </defs>
  <rect width="1200" height="560" fill="url(#bg)"/>
  <text x="70" y="70" fill="#e7e7e7" font-family="Arial, sans-serif" font-size="34">Mechanical Counter Card</text>
  <g transform="translate(70 115)" filter="url(#shadow)">
    <rect width="900" height="170" rx="17" fill="url(#case)" stroke="#050505" stroke-width="5"/>
    <g fill="#080808" stroke="#555" stroke-width="2">
      <circle cx="27" cy="27" r="16"/><circle cx="873" cy="27" r="16"/><circle cx="27" cy="143" r="16"/><circle cx="873" cy="143" r="16"/>
    </g>
    <g stroke="#222" stroke-width="5"><path d="M18 18l18 18M36 18L18 36M864 18l18 18M882 18l-18 18M18 134l18 18M36 134l-18 18M864 134l18 18M882 134l-18 18"/></g>
    <rect x="68" y="32" width="620" height="106" rx="7" fill="#080808" stroke="#464646" stroke-width="5"/>
    <g font-family="Arial Narrow, Arial, sans-serif" font-size="78" font-weight="300" text-anchor="middle">
      <g fill="url(#drum)" stroke="#111">
        <rect x="85" y="44" width="75" height="82"/><rect x="160" y="44" width="75" height="82"/><rect x="235" y="44" width="75" height="82"/><rect x="310" y="44" width="75" height="82"/><rect x="385" y="44" width="75" height="82"/><rect x="460" y="44" width="75" height="82"/><rect x="535" y="44" width="75" height="82"/><rect x="610" y="44" width="60" height="82"/>
      </g>
      <g fill="#f1f1eb"><text x="122" y="113">0</text><text x="197" y="113">0</text><text x="272" y="113">0</text><text x="347" y="113">0</text><text x="422" y="113">1</text><text x="497" y="113">3</text></g>
      <text x="572" y="113" fill="#d52b2b">,</text><text x="640" y="113" fill="#d52b2b">8</text>
    </g>
    <text x="730" y="106" fill="#dedede" font-family="Arial, sans-serif" font-size="40">RAM %</text>
  </g>
  <g transform="translate(70 330) scale(.63)" filter="url(#shadow)">
    <rect width="900" height="170" rx="17" fill="url(#case)" stroke="#050505" stroke-width="5"/>
    <rect x="68" y="32" width="620" height="106" rx="7" fill="#080808" stroke="#464646" stroke-width="5"/>
    <text x="110" y="110" fill="#f1f1eb" font-family="Arial Narrow, Arial, sans-serif" font-size="72" font-weight="300">0000043</text>
    <text x="730" y="106" fill="#dedede" font-family="Arial, sans-serif" font-size="40">CPU °C</text>
  </g>
  <text x="710" y="405" fill="#aeb5bf" font-family="Arial, sans-serif" font-size="25">Responsive fitting for narrow Home Assistant columns</text>
</svg>
